<svg xmlns="http://www.w3.org/2000/svg" width="26" height="25" viewBox="0 0 26 25"><path fill="currentColor" fill-rule="nonzero" stroke="#000C20" stroke-width=".2" d="M25.598 18.122a5.082 5.082 0 0 0-2.511-3.48 4.474 4.474 0 0 0-2.154-.568 4.113 4.113 0 0 0-3.865 2.5 3.484 3.484 0 0 0 0 2.643 3.034 3.034 0 0 0 1.613 1.713c.322.134.664.204 1.017.21a2.173 2.173 0 0 0 2.213-1.704 1.387 1.387 0 0 0-.645-1.498.956.956 0 0 0-.437-.12.575.575 0 0 0-.437.175.315.315 0 0 0-.079.13c.04.024.084.044.13.064.292.1.52.343.595.647a.808.808 0 0 1-.229.727 1.753 1.753 0 0 1-1.022.503h-.129a1.856 1.856 0 0 1-1.697-1.593 2.752 2.752 0 0 1 1.96-3.187c.318-.1.645-.15.978-.15 1.503.04 2.833.982 3.374 2.39a4.323 4.323 0 0 1-.07 3.416 4.763 4.763 0 0 1-2.714 2.564 5.29 5.29 0 0 1-1.801.329 5.563 5.563 0 0 1-5.35-4.352 6.199 6.199 0 0 1 2.288-6.572 7.33 7.33 0 0 0 2.491-3.743 6.532 6.532 0 0 0-.556-4.954 6.086 6.086 0 0 0-3.701-2.987A5.717 5.717 0 0 0 13.272 1a5.303 5.303 0 0 0-5.255 4.172 4.564 4.564 0 0 0 .834 3.813 4.143 4.143 0 0 0 3.27 1.593c.164.01.322.01.486 0a3.327 3.327 0 0 0 2.278-1.289 3.207 3.207 0 0 0 .645-2.335 2.392 2.392 0 0 0-2.144-2.12h-.144a1.59 1.59 0 0 0-1.588 1.224.798.798 0 0 0 .487.916h.104c.025.005.05.005.07 0a.564.564 0 0 0 0-.13.913.913 0 0 1 .173-.746.79.79 0 0 1 .645-.304h.149c.526.065.963.443 1.101.956a1.925 1.925 0 0 1-.585 2.1 2.462 2.462 0 0 1-1.682.628 2.857 2.857 0 0 1-1.588-.463 3.324 3.324 0 0 1-1.459-2.32 3.833 3.833 0 0 1 .794-2.962 4.313 4.313 0 0 1 3.384-1.593 4.796 4.796 0 0 1 3.305 1.344 5.371 5.371 0 0 1 1.627 4.132 5.758 5.758 0 0 1-2.183 4.262 6.131 6.131 0 0 1-3.865 1.409 7.425 7.425 0 0 1-2.65-.518 7.436 7.436 0 0 0-2.61-.503 6.825 6.825 0 0 0-3.364.916A6.383 6.383 0 0 0 .52 17.077a6.007 6.007 0 0 0 .585 4.59A5.405 5.405 0 0 0 5.72 24.36a4.9 4.9 0 0 0 2.908-.94 4.384 4.384 0 0 0 1.776-2.898 4.045 4.045 0 0 0-.715-3.012 3.461 3.461 0 0 0-2.768-1.444 3.011 3.011 0 0 0-1.916.667 2.524 2.524 0 0 0-.913 1.792 2.03 2.03 0 0 0 .541 1.593 1.57 1.57 0 0 0 1.136.508c.204 0 .407-.05.586-.144a.8.8 0 0 0 .437-.797c0-.08-.055-.149-.13-.174a.245.245 0 0 0-.128.065.919.919 0 0 1-.586.229.856.856 0 0 1-.794-.568 1.484 1.484 0 0 1 .715-1.822 1.98 1.98 0 0 1 1.017-.279 2.315 2.315 0 0 1 1.459.533 2.876 2.876 0 0 1 .858 3.057 3.58 3.58 0 0 1-3.503 2.52c-.546 0-1.087-.11-1.588-.33a4.458 4.458 0 0 1-2.451-2.678 4.991 4.991 0 0 1 .293-3.893 5.544 5.544 0 0 1 4.962-2.977c1.146 0 2.262.338 3.225.965a6.612 6.612 0 0 1 2.952 4.83 6.773 6.773 0 0 0 6.754 5.735 5.935 5.935 0 0 0 4.699-2.39 5.456 5.456 0 0 0 1.052-4.386z"/></svg>