<?xml version="1.0" encoding="utf-8"?>
<!-- Generator: Adobe Illustrator 19.0.0, SVG Export Plug-In . SVG Version: 6.00 Build 0)  -->
<svg version="1.1" id="Calque_1" xmlns="http://www.w3.org/2000/svg" xmlns:xlink="http://www.w3.org/1999/xlink" x="0px" y="0px"
	 viewBox="-283 375.3 43.7 43.7" style="enable-background:new -283 375.3 43.7 43.7;" xml:space="preserve">
<style type="text/css">
	.st0{fill:#29DC93;}
	.st1{fill:url(#SVGID_1_);}
	.st2{fill:url(#SVGID_2_);}
	.st3{fill:url(#SVGID_3_);}
	.st4{fill:url(#SVGID_4_);}
	.st5{fill:url(#SVGID_5_);}
	.st6{fill:url(#SVGID_6_);}
</style>
<path id="Path_213" class="st0" d="M-529.9,804.2"/>
<g>
	<linearGradient id="SVGID_1_" gradientUnits="userSpaceOnUse" x1="-271.098" y1="397.15" x2="-251.3362" y2="397.15">
		<stop  offset="1.963447e-007" style="stop-color:#29DCE8"/>
		<stop  offset="1" style="stop-color:#29DC93"/>
	</linearGradient>
	<path class="st1" d="M-260.6,380.1c0,0,4.5,1.8,8.4,10.7c0,0,0.9,3,0.9,4.8c0,0,0.2,5.9-4.1,7.7c0,0-1.9,0.5-1.7,2.6
		c0.2,2.1,0.6,5.4,0.6,6.1c0,0.7-0.7,2-2.3,2.1c0,0-3,0.4-4.5,0c-1.5-0.4-1.7-1.2-1.7-1.2s-0.7-1-0.2-5.4c0,0,1-3.1-1.9-4.3
		c-2.9-1.2-3.9-6.5-3.9-6.5s-0.9-5.2,4.7-12.5c0,0,3.5-4.4,5.6-4.2"/>
	<g>
		<linearGradient id="SVGID_2_" gradientUnits="userSpaceOnUse" x1="-266.0864" y1="383.1736" x2="-265.8241" y2="383.1736">
			<stop  offset="1.963447e-007" style="stop-color:#29DCE8"/>
			<stop  offset="1" style="stop-color:#29DC93"/>
		</linearGradient>
		<path class="st2" d="M-265.8,383c-0.1,0.1-0.2,0.2-0.3,0.3C-266,383.2-265.9,383.1-265.8,383z"/>
		<linearGradient id="SVGID_3_" gradientUnits="userSpaceOnUse" x1="-282.94" y1="393.3878" x2="-267.3671" y2="393.3878">
			<stop  offset="1.963447e-007" style="stop-color:#29DCE8"/>
			<stop  offset="1" style="stop-color:#29DC93"/>
		</linearGradient>
		<path class="st3" d="M-268.2,386.1c-1.6-1.1-3.3-1.9-5.1-2.3c-1.9-0.4-3.8-0.6-5.6-0.6c-0.4,0-0.9,0-1.3,0c-0.9,0-1.7,0.3-2.3,1
			c-0.5,0.6-0.7,1.4-0.5,2.2c0.6,4.1,2.4,8,5.2,11.1c1.4,1.5,3,2.8,4.7,3.9c1.8,1,3.7,1.8,5.7,2.2c-3-1.3-4-6.7-4-6.7
			c-2.9-1.8-4.8-4.5-6.2-8.5h0.1c2.5,0,5,0.9,7.1,2.3C-270.5,390.7-269.2,387.2-268.2,386.1z"/>
		<linearGradient id="SVGID_4_" gradientUnits="userSpaceOnUse" x1="-255.1679" y1="393.4238" x2="-239.2928" y2="393.4238">
			<stop  offset="1.963447e-007" style="stop-color:#29DCE8"/>
			<stop  offset="1" style="stop-color:#29DC93"/>
		</linearGradient>
		<path class="st4" d="M-251.9,390.7c2.1-1.5,4.5-2.2,7.1-2.3h0.1c-1.4,4-3.4,6.7-6.3,8.5c0-0.2,0-0.4,0-0.6
			c-0.1,1.6-0.7,5.9-4.2,7.4c2.1-0.5,4.2-1.2,6-2.3c1.8-1,3.4-2.3,4.7-3.9c2.7-3.1,4.5-7,5.2-11.1c0.2-0.8,0-1.6-0.5-2.2
			c-0.6-0.6-1.4-1-2.3-1c-0.5,0-0.9,0-1.3,0c-1.9,0-3.8,0.2-5.6,0.6c-1.9,0.4-3.7,1.3-5.2,2.4C-254.2,386.1-252.2,389.5-251.9,390.7
			z"/>
		<linearGradient id="SVGID_5_" gradientUnits="userSpaceOnUse" x1="-256.8272" y1="405.0408" x2="-256.7926" y2="405.0408">
			<stop  offset="1.963447e-007" style="stop-color:#29DCE8"/>
			<stop  offset="1" style="stop-color:#29DC93"/>
		</linearGradient>
		<path class="st5" d="M-256.8,405C-256.8,405-256.8,405.1-256.8,405C-256.8,405.1-256.8,405-256.8,405z"/>
		<linearGradient id="SVGID_6_" gradientUnits="userSpaceOnUse" x1="-264.8351" y1="414.1922" x2="-264.7507" y2="414.1922">
			<stop  offset="1.963447e-007" style="stop-color:#29DCE8"/>
			<stop  offset="1" style="stop-color:#29DC93"/>
		</linearGradient>
		<path class="st6" d="M-264.8,414.2C-264.8,414.2-264.8,414.2-264.8,414.2C-264.8,414.2-264.8,414.2-264.8,414.2z"/>
	</g>
</g>
</svg>
