<svg xmlns="http://www.w3.org/2000/svg" viewBox="0 0 96.38289 98.4168"><title>crown-lines</title><path d="M48.16144,61.54985" style="fill:none;stroke:#dab679;stroke-miterlimit:10;stroke-width:1.1500000000000001px"/><path d="M48.16144,61.54985" style="fill:none;stroke:#dab679;stroke-miterlimit:10;stroke-width:1.1500000000000001px"/><circle cx="79.72168" cy="73.86819" r="2.19963" transform="translate(-21.34524 33.89904) rotate(-21.24003)" style="fill:none;stroke:#dab679;stroke-miterlimit:10;stroke-width:1.1500000000000001px"/><circle cx="48.16056" cy="63.75068" r="2.19963" transform="translate(-19.82383 21.77794) rotate(-21.24003)" style="fill:none;stroke:#dab679;stroke-miterlimit:10;stroke-width:1.1500000000000001px"/><path d="M48.16144,61.54985" style="fill:none;stroke:#dab679;stroke-miterlimit:10;stroke-width:1.1500000000000001px"/><path d="M48.16144,61.54985" style="fill:none;stroke:#dab679;stroke-miterlimit:10;stroke-width:1.1500000000000001px"/><path d="M48.16144,22.82413" style="fill:none;stroke:#dab679;stroke-miterlimit:10;stroke-width:1.1500000000000001px"/><line x1="48.16144" y1="22.82413" x2="48.16144" y2="61.54985" style="fill:none;stroke:#dab679;stroke-miterlimit:10;stroke-width:1.1500000000000001px"/><path d="M74.29091,42.187" style="fill:none;stroke:#dab679;stroke-miterlimit:10;stroke-width:1.1500000000000001px"/><path d="M21.80715,42.187" style="fill:none;stroke:#dab679;stroke-miterlimit:10;stroke-width:1.1500000000000001px"/><polygon points="71.032 21.966 78.494 70.022 48.161 22.824 17.829 70.022 24.697 21.966 71.032 21.966" style="fill:none;stroke:#dab679;stroke-miterlimit:10;stroke-width:1.1500000000000001px"/><line x1="95.89917" y1="98.10593" x2="90.41532" y2="89.57293" style="fill:none;stroke:#dab679;stroke-miterlimit:10;stroke-width:1.1500000000000001px"/><line x1="24.69693" y1="21.96567" x2="48.16144" y2="61.54985" style="fill:none;stroke:#dab679;stroke-miterlimit:10;stroke-width:1.1500000000000001px"/><line x1="48.16144" y1="61.54985" x2="71.03177" y2="21.96567" style="fill:none;stroke:#dab679;stroke-miterlimit:10;stroke-width:1.1500000000000001px"/><line x1="84.50651" y1="0.2932" x2="80.17494" y2="7.60048" style="fill:none;stroke:#dab679;stroke-miterlimit:10;stroke-width:1.1500000000000001px"/><line x1="11.23219" y1="0.2932" x2="15.56376" y2="7.60048" style="fill:none;stroke:#dab679;stroke-miterlimit:10;stroke-width:1.1500000000000001px"/><circle cx="16.66122" cy="73.86819" r="2.2005" transform="translate(-58.22513 62.63696) rotate(-68.75997)" style="fill:none;stroke:#dab679;stroke-miterlimit:10;stroke-width:1.1500000000000001px"/><line x1="0.48372" y1="98.10593" x2="5.96757" y2="89.57293" style="fill:none;stroke:#dab679;stroke-miterlimit:10;stroke-width:1.1500000000000001px"/></svg>