<svg xmlns="http://www.w3.org/2000/svg" viewBox="0 0 193.07475 70.47137"><title>logo-gold</title><path d="M10.70206,59.40037a3.86416,3.86416,0,0,1,.28971.90709,4.47282,4.47282,0,0,1,.07946.977,4.73617,4.73617,0,0,1-.12615.96334,3.55084,3.55084,0,0,1-.33668.8836,2.633,2.633,0,0,1-.645.78066,3.924,3.924,0,0,1-.88852.55157,4.58627,4.58627,0,0,1-1.00976.32275A5.19723,5.19723,0,0,1,7.0647,64.889q-.23387,0-.50488-.00928c-.181-.006-.36617-.02184-.55649-.04669a5.702,5.702,0,0,1-.57969-.10758,2.99034,2.99034,0,0,1-.57505-.201c-.056-.02485-.092-.02649-.10731-.00464a.10523.10523,0,0,0-.02348.06062v3.88994a1.22648,1.22648,0,0,0,.187.71049,1.53419,1.53419,0,0,0,.4347.43006,1.64763,1.64763,0,0,0,.491.21981q.24288.061.35524.07946a.23169.23169,0,0,1,.12615.06553.126.126,0,0,1,.03741.098.14215.14215,0,0,1-.05133.09366.20387.20387,0,0,1-.14035.04205H.19219a.20387.20387,0,0,1-.14035-.04205.14215.14215,0,0,1-.05133-.09366.126.126,0,0,1,.03741-.098.23368.23368,0,0,1,.12615-.06553q.11223-.01843.35552-.07946a1.64932,1.64932,0,0,0,.49068-.21981,1.53853,1.53853,0,0,0,.435-.43006,1.22854,1.22854,0,0,0,.187-.71049V59.32555a1.23447,1.23447,0,0,0-.187-.70585,1.46653,1.46653,0,0,0-.435-.43006,1.83453,1.83453,0,0,0-.49068-.21981q-.24329-.06512-.35552-.0841a.181.181,0,0,1-.12615-.06089.13976.13976,0,0,1-.03741-.10267.14215.14215,0,0,1,.05133-.09366.20387.20387,0,0,1,.14035-.04205H6.26984q.53328,0,1.05208.00928a5.97224,5.97224,0,0,1,1.00976.10294,4.06581,4.06581,0,0,1,.95378.30855,3.44287,3.44287,0,0,1,.89289.6171,2.3319,2.3319,0,0,1,.29463.3648A3.0555,3.0555,0,0,1,10.70206,59.40037ZM5.8305,64.15971a1.76959,1.76959,0,0,0,.89753-.21025,1.65749,1.65749,0,0,0,.59854-.60318,2.87023,2.87023,0,0,0,.33668-.94914A6.89915,6.89915,0,0,0,7.76591,61.149q0-.589-.04205-1.13154a3.26663,3.26663,0,0,0-.20561-.95351,1.5058,1.5058,0,0,0-.491-.65943,1.457,1.457,0,0,0-.89753-.24766,1.483,1.483,0,0,0-.70148.145,1.15278,1.15278,0,0,0-.43006.388,1.54714,1.54714,0,0,0-.21981.55621,3.416,3.416,0,0,0-.06062.64987v3.08579a1.16993,1.16993,0,0,0,.30391.89753A1.14458,1.14458,0,0,0,5.8305,64.15971Z" style="fill:#dab679"/><path d="M36.72389,57.32461a6.88106,6.88106,0,0,1,1.79533.22909,6.48387,6.48387,0,0,1,1.57552.64987,6.09154,6.09154,0,0,1,1.30438,1.01467,6.20852,6.20852,0,0,1,.9819,1.31367,6.65165,6.65165,0,0,1,.62175,1.55668,6.84764,6.84764,0,0,1,.21981,1.744,6.42566,6.42566,0,0,1-.23865,1.75328,6.59843,6.59843,0,0,1-.67308,1.58017,6.74984,6.74984,0,0,1-2.42172,2.3936,6.84349,6.84349,0,0,1-3.44568.91173,6.66031,6.66031,0,0,1-2.62269-.50488,6.24138,6.24138,0,0,1-2.05255-1.38384,6.32479,6.32479,0,0,1-1.34179-2.06184,6.69028,6.69028,0,0,1-.4814-2.54787,6.43462,6.43462,0,0,1,.23838-1.75328,6.68421,6.68421,0,0,1,3.09507-3.98332,6.85086,6.85086,0,0,1,3.4454-.91173Zm-.14008,12.59492a2.03318,2.03318,0,0,0,1.33715-.47211,3.6033,3.6033,0,0,0,.94886-1.29018,7.60047,7.60047,0,0,0,.56577-1.9122,14.78823,14.78823,0,0,0,0-4.68917,7.59739,7.59739,0,0,0-.56577-1.91684,3.60443,3.60443,0,0,0-.94886-1.29046,2.12964,2.12964,0,0,0-2.6743,0,3.60494,3.60494,0,0,0-.94914,1.29046,7.60862,7.60862,0,0,0-.56577,1.91684,14.80958,14.80958,0,0,0,0,4.68917,7.61176,7.61176,0,0,0,.56577,1.9122,3.6038,3.6038,0,0,0,.94914,1.29018A2.03215,2.03215,0,0,0,36.58381,69.91952Z" style="fill:#dab679"/><path d="M73.58134,69.022a.26.26,0,0,1,.21025.01393q.0983.05161.05133.22909a1.0652,1.0652,0,0,1-.2381.42542,2.13273,2.13273,0,0,1-.45819.38828,2.49482,2.49482,0,0,1-.6313.28507,2.64148,2.64148,0,0,1-.76674.10758,3.70575,3.70575,0,0,1-.69192-.06553,2.45561,2.45561,0,0,1-.65915-.22445,2.09517,2.09517,0,0,1-.56577-.42078,2.159,2.159,0,0,1-.42105-.65451,3.42233,3.42233,0,0,1-.22882-.77138q-.07946-.43457-.12615-.99583a9.34526,9.34526,0,0,0-.27579-1.7156,3.0682,3.0682,0,0,0-.42105-.95378,1.04541,1.04541,0,0,0-.50952-.40685,1.76875,1.76875,0,0,0-.52372-.0841.61721.61721,0,0,0-.43907.12151.58391.58391,0,0,0-.12178.42078v3.74959a1.22852,1.22852,0,0,0,.18677.71049,1.53936,1.53936,0,0,0,.43525.43006,1.6419,1.6419,0,0,0,.49041.21981q.24329.061.35552.07946a.23169.23169,0,0,1,.12615.06553.12726.12726,0,0,1,.03768.098.14331.14331,0,0,1-.05133.09366.20482.20482,0,0,1-.14035.04205H62.2392a.20387.20387,0,0,1-.14035-.04205.14331.14331,0,0,1-.05133-.09366.12667.12667,0,0,1,.03714-.098.23546.23546,0,0,1,.1267-.06553c.07482-.01229.19278-.03877.355-.07946a1.6446,1.6446,0,0,0,.491-.21981,1.5377,1.5377,0,0,0,.4347-.43006,1.22445,1.22445,0,0,0,.18732-.71049V59.32555a1.23031,1.23031,0,0,0-.18732-.70585,1.46575,1.46575,0,0,0-.4347-.43006,1.82847,1.82847,0,0,0-.491-.21981c-.16219-.04342-.28015-.07154-.355-.0841a.18229.18229,0,0,1-.1267-.06089.14056.14056,0,0,1-.03714-.10267.14331.14331,0,0,1,.05133-.09366.20387.20387,0,0,1,.14035-.04205H67.999q.53328,0,1.05181.00928a6.6624,6.6624,0,0,1,1.00976.09366,4.28575,4.28575,0,0,1,.95405.28043,3.37671,3.37671,0,0,1,.89289.57041,2.5392,2.5392,0,0,1,.56577.734,3.24375,3.24375,0,0,1,.34569,1.84667,2.84437,2.84437,0,0,1-.24739.90709,2.88185,2.88185,0,0,1-.87924,1.15475,3.93119,3.93119,0,0,1-1.29974.62175c-.0497.01256-.07809.03277-.0841.06089-.006.02785.01256.04533.05625.05133.0497.01256.13707.0344.26159.06553a2.47,2.47,0,0,1,.42105.15428,2.289,2.289,0,0,1,.46747.29435,1.60606,1.60606,0,0,1,.39265.46774,2.52838,2.52838,0,0,1,.27579.874,9.577,9.577,0,0,1,.0983,1.11761q.03686.64509.07919,1.07037a2.14705,2.14705,0,0,0,.15455.66871.68993.68993,0,0,0,.21954.29463.832.832,0,0,0,.28507.13544.8832.8832,0,0,0,.29927.02348A.89778.89778,0,0,0,73.58134,69.022ZM66.98,63.63626c.16165,0,.34132-.00628.53737-.01884a2.58205,2.58205,0,0,0,.58925-.10758,2.01122,2.01122,0,0,0,.57014-.28043,1.72536,1.72536,0,0,0,.48658-.54229,3.11136,3.11136,0,0,0,.3364-.8836,5.78162,5.78162,0,0,0,.12615-1.309,5.21843,5.21843,0,0,0-.10267-1.12662,2.09644,2.09644,0,0,0-.29435-.72933,1.11818,1.11818,0,0,0-.468-.39757,1.52778,1.52778,0,0,0-.62147-.12151,1.86052,1.86052,0,0,0-.56085.07946,1.07582,1.07582,0,0,0-.43525.25722,1.1783,1.1783,0,0,0-.28015.44863,1.96192,1.96192,0,0,0-.0983.66407v3.86154Q66.7648,63.6364,66.98,63.63626Z" style="fill:#dab679"/><path d="M103.82049,57.76422v2.59921c0,.09994-.041.15455-.12178.16383s-.14035-.03577-.17749-.13571q-.03768-.084-.13107-.28507a3.4986,3.4986,0,0,0-.26159-.45354,4.43289,4.43289,0,0,0-.41177-.51908,3.29211,3.29211,0,0,0-.57014-.49068,3.18688,3.18688,0,0,0-.734-.36944,2.7035,2.7035,0,0,0-.912-.145.90826.90826,0,0,0-.38337.07018.62677.62677,0,0,0-.2381.187.71453.71453,0,0,0-.12615.27579,1.84772,1.84772,0,0,0-.047.32739v9.48128a1.22852,1.22852,0,0,0,.18677.71049,1.53936,1.53936,0,0,0,.43525.43006,1.6446,1.6446,0,0,0,.491.21981q.24247.061.355.07946a.23169.23169,0,0,1,.12615.06553.12726.12726,0,0,1,.03768.098.14331.14331,0,0,1-.05133.09366.20482.20482,0,0,1-.14035.04205H95.1805a.20387.20387,0,0,1-.14035-.04205.14331.14331,0,0,1-.05133-.09366.12531.12531,0,0,1,.03768-.098.23169.23169,0,0,1,.12615-.06553c.07482-.01229.19278-.03877.355-.07946a1.6446,1.6446,0,0,0,.491-.21981,1.5307,1.5307,0,0,0,.4347-.43006,1.22445,1.22445,0,0,0,.18732-.71049V65.64649q0-.7479.00437-1.53812.00491-.79008.00491-1.5616V59.40992q0-.23387-.0142-.46283a1.28734,1.28734,0,0,0-.08847-.41149.65116.65116,0,0,0-.23865-.29463.81279.81279,0,0,0-.4631-.11223,2.74,2.74,0,0,0-.91582.145,3.05387,3.05387,0,0,0-.73452.36944,3.3581,3.3581,0,0,0-.56522.49068,4.43289,4.43289,0,0,0-.41177.51908,4.03935,4.03935,0,0,0-.2665.45354,2.72236,2.72236,0,0,0-.12615.28507c-.03714.09994-.09666.145-.17749.13571-.08137-.00928-.12178-.06389-.12178-.16383V57.76422q0-.17776.1966-.17776h10.92109Q103.82049,57.58646,103.82049,57.76422Z" style="fill:#dab679"/><path d="M129.137,69.91024a.23169.23169,0,0,1,.12615.06553.12726.12726,0,0,1,.03768.098.14331.14331,0,0,1-.05133.09366.20482.20482,0,0,1-.14035.04205h-5.9657a.20387.20387,0,0,1-.14035-.04205.14331.14331,0,0,1-.05133-.09366.12667.12667,0,0,1,.03714-.098.23546.23546,0,0,1,.1267-.06553c.07482-.01229.19278-.03877.355-.07946a1.6446,1.6446,0,0,0,.491-.21981,1.5377,1.5377,0,0,0,.4347-.43006,1.22445,1.22445,0,0,0,.18732-.71049V59.32555a1.23031,1.23031,0,0,0-.18732-.70585,1.46575,1.46575,0,0,0-.4347-.43006,1.82847,1.82847,0,0,0-.491-.21981c-.16219-.04342-.28015-.07154-.355-.0841a.18229.18229,0,0,1-.1267-.06089.14056.14056,0,0,1-.03714-.10267.14331.14331,0,0,1,.05133-.09366.20387.20387,0,0,1,.14035-.04205h5.9657a.20482.20482,0,0,1,.14035.04205.14331.14331,0,0,1,.05133.09366.14123.14123,0,0,1-.03768.10267.17986.17986,0,0,1-.12615.06089q-.11223.01884-.35552.0841a1.82548,1.82548,0,0,0-.49041.21981,1.46731,1.46731,0,0,0-.43525.43006,1.23442,1.23442,0,0,0-.18677.70585v9.14487a1.22852,1.22852,0,0,0,.18677.71049,1.53936,1.53936,0,0,0,.43525.43006,1.6419,1.6419,0,0,0,.49041.21981Q129.02479,69.89181,129.137,69.91024Z" style="fill:#dab679"/><path d="M154.90135,57.32461a6.88465,6.88465,0,0,1,1.79561.22909,6.49284,6.49284,0,0,1,1.57552.64987,6.09669,6.09669,0,0,1,1.30411,1.01467,6.19926,6.19926,0,0,1,.9819,1.31367,6.62746,6.62746,0,0,1,.62147,1.55668,6.82344,6.82344,0,0,1,.22008,1.744,6.43622,6.43622,0,0,1-.23865,1.75328A6.58818,6.58818,0,0,1,160.488,67.166a6.75195,6.75195,0,0,1-2.42145,2.3936,6.84547,6.84547,0,0,1-3.4454.91173,6.6607,6.6607,0,0,1-2.623-.50488,6.243,6.243,0,0,1-2.05228-1.38384,6.30722,6.30722,0,0,1-1.34179-2.06184,6.69042,6.69042,0,0,1-.48167-2.54787,6.43446,6.43446,0,0,1,.2381-1.75328,6.68285,6.68285,0,0,1,3.09535-3.98332,6.84885,6.84885,0,0,1,3.4454-.91173ZM154.761,69.91952a2.0339,2.0339,0,0,0,1.33742-.47211,3.61021,3.61021,0,0,0,.94914-1.29018,7.62308,7.62308,0,0,0,.56577-1.9122,14.80958,14.80958,0,0,0,0-4.68917,7.61988,7.61988,0,0,0-.56577-1.91684,3.61135,3.61135,0,0,0-.94914-1.29046,2.12964,2.12964,0,0,0-2.6743,0A3.60494,3.60494,0,0,0,152.475,59.639a7.59739,7.59739,0,0,0-.56577,1.91684,14.80958,14.80958,0,0,0,0,4.68917,7.60047,7.60047,0,0,0,.56577,1.9122,3.6038,3.6038,0,0,0,.94914,1.29018A2.03143,2.03143,0,0,0,154.761,69.91952Z" style="fill:#dab679"/><path d="M193.02249,57.62852a.14416.14416,0,0,1,.05188.09366.14123.14123,0,0,1-.03768.10267.17986.17986,0,0,1-.12615.06089q-.11223.01884-.35552.0841a1.836,1.836,0,0,0-.491.21981,1.47215,1.47215,0,0,0-.4347.43006,1.23442,1.23442,0,0,0-.18677.70585V70.09728a.1929.1929,0,0,1-.10758.19168q-.10731.0512-.22937-.07018-.02785-.02785-.27579-.32248-.24739-.29449-.65915-.78094-.41122-.48576-.95351-1.12662-.54229-.64018-1.14574-1.35572-.6029-.71554-1.23858-1.47286-.63649-.75732-1.23421-1.47258-.59881-.71513-1.13154-1.35107-.53328-.63567-.93494-1.1127-.40221-.47675-.64059-.75745c-.15892-.187-.24193-.28343-.24793-.28971-.04369-.04369-.08082-.05761-.112-.04205s-.047.05133-.047.10731v8.2285a1.22445,1.22445,0,0,0,.18732.71049,1.5307,1.5307,0,0,0,.4347.43006,1.6446,1.6446,0,0,0,.491.21981q.24247.061.355.07946a.23169.23169,0,0,1,.12615.06553.12531.12531,0,0,1,.03768.098.14331.14331,0,0,1-.05133.09366.20387.20387,0,0,1-.14035.04205h-3.553a.20293.20293,0,0,1-.14035-.04205.141.141,0,0,1-.05133-.09366.12667.12667,0,0,1,.03714-.098.23571.23571,0,0,1,.12615-.06553q.11223-.01843.35552-.07946a1.65067,1.65067,0,0,0,.491-.21981,1.5377,1.5377,0,0,0,.4347-.43006,1.22852,1.22852,0,0,0,.18677-.71049V59.32555a1.23442,1.23442,0,0,0-.18677-.70585,1.46575,1.46575,0,0,0-.4347-.43006,1.836,1.836,0,0,0-.491-.21981q-.24329-.06512-.35552-.0841a.1821.1821,0,0,1-.12615-.06089.13118.13118,0,0,1,.0142-.19633.20293.20293,0,0,1,.14035-.04205h3.7119a.57189.57189,0,0,1,.45819.19633q.17776.21544.533.63594.35552.42064.80879.95842.453.53778.97262,1.15939.51853.62175,1.03761,1.23421.51935.61273,1.00047,1.18287.48167.57055.85575,1.0144.37354.4444.6029.7154t.24793.29q.07454.075.12124.056c.03113-.01229.047-.0497.047-.11223V59.32555a1.23442,1.23442,0,0,0-.18677-.70585,1.47215,1.47215,0,0,0-.4347-.43006,1.84365,1.84365,0,0,0-.491-.21981q-.24329-.06512-.35552-.0841a.17986.17986,0,0,1-.12615-.06089.139.139,0,0,1-.03768-.10267.14184.14184,0,0,1,.05188-.09366.20234.20234,0,0,1,.1398-.04205h3.55353A.20234.20234,0,0,1,193.02249,57.62852Z" style="fill:#dab679"/><path d="M96.50367,28.58793" style="fill:none;stroke:#dab679;stroke-miterlimit:10"/><path d="M96.50367,28.58793" style="fill:none;stroke:#dab679;stroke-miterlimit:10"/><circle cx="118.58718" cy="36.5034" r="1.5608" transform="translate(-5.16878 45.4409) rotate(-21.24002)" style="fill:none;stroke:#dab679;stroke-miterlimit:10"/><circle cx="74.48632" cy="36.5034" r="1.5608" transform="translate(-8.16451 29.46423) rotate(-21.24002)" style="fill:none;stroke:#dab679;stroke-miterlimit:10"/><circle cx="96.50304" cy="30.14958" r="1.5608" transform="translate(-4.3671 37.00875) rotate(-21.24002)" style="fill:none;stroke:#dab679;stroke-miterlimit:10"/><path d="M96.50367,28.58793" style="fill:none;stroke:#dab679;stroke-miterlimit:10"/><path d="M96.50367,28.58793" style="fill:none;stroke:#dab679;stroke-miterlimit:10"/><path d="M96.50367,1.10914" style="fill:none;stroke:#dab679;stroke-miterlimit:10"/><line x1="96.50367" y1="1.10914" x2="96.50367" y2="28.58793" style="fill:none;stroke:#dab679;stroke-miterlimit:10"/><path d="M115.04448,14.84854" style="fill:none;stroke:#dab679;stroke-miterlimit:10"/><path d="M77.80332,14.84854" style="fill:none;stroke:#dab679;stroke-miterlimit:10"/><polygon points="112.732 0.5 118.027 34.6 96.504 1.109 74.981 34.6 79.854 0.5 112.732 0.5" style="fill:none;stroke:#dab679;stroke-linejoin:round"/><line x1="79.85384" y1="0.5" x2="96.50367" y2="28.58793" style="fill:none;stroke:#dab679;stroke-miterlimit:10"/><line x1="96.50367" y1="28.58793" x2="112.73187" y2="0.5" style="fill:none;stroke:#dab679;stroke-miterlimit:10"/></svg>