<?xml version="1.0" standalone="no"?>
<!DOCTYPE svg PUBLIC "-//W3C//DTD SVG 20010904//EN"
 "http://www.w3.org/TR/2001/REC-SVG-20010904/DTD/svg10.dtd">
<svg version="1.0" xmlns="http://www.w3.org/2000/svg"
 width="224.000000pt" height="75.000000pt" viewBox="0 0 224.000000 75.000000"
 preserveAspectRatio="xMidYMid meet">
<metadata>
Created by potrace 1.16, written by Peter Selinger 2001-2019
</metadata>
<g transform="translate(0.000000,75.000000) scale(0.100000,-0.100000)"
fill="#000000" stroke="none">
<path d="M751 624 c-15 -19 -21 -41 -21 -75 0 -48 -1 -49 -30 -49 -28 0 -30
-3 -30 -35 0 -32 2 -35 30 -35 l30 0 0 -165 0 -165 40 0 40 0 0 165 0 165 40
0 c39 0 40 1 40 35 0 34 -1 35 -40 35 -39 0 -40 1 -40 35 0 36 20 55 59 55 17
0 21 6 21 30 0 30 0 30 -59 30 -52 0 -62 -3 -80 -26z"/>
<path d="M930 375 l0 -275 35 0 35 0 0 275 0 275 -35 0 -35 0 0 -275z"/>
<path d="M1910 375 l0 -275 40 0 40 0 1 63 c0 57 3 64 31 86 30 24 31 24 45 5
8 -10 31 -49 51 -86 36 -68 36 -68 79 -68 26 0 43 5 43 12 0 6 -27 56 -61 110
-43 71 -59 106 -55 121 3 12 30 50 61 84 30 33 55 64 55 67 0 3 -22 6 -49 6
-46 0 -50 -2 -97 -57 -27 -32 -61 -71 -76 -88 l-27 -30 -1 163 0 162 -40 0
-40 0 0 -275z"/>
<path d="M1149 487 c-57 -38 -79 -89 -79 -183 0 -131 42 -196 136 -210 108
-16 191 15 219 83 25 60 21 73 -25 73 -34 0 -40 -3 -40 -20 0 -12 -11 -32 -25
-45 -33 -34 -112 -36 -142 -2 -23 25 -43 60 -43 76 0 7 52 11 143 13 l142 3 3
41 c2 24 -6 64 -18 98 -28 73 -67 96 -168 96 -55 0 -76 -5 -103 -23z m170 -64
c11 -10 24 -33 27 -50 l7 -33 -102 0 c-55 0 -101 2 -101 4 0 21 35 79 53 86
37 15 93 11 116 -7z"/>
<path d="M1570 492 c-47 -23 -77 -72 -86 -138 -14 -114 9 -194 68 -236 28 -20
45 -23 119 -23 78 0 89 2 122 28 23 17 40 41 47 65 16 58 14 62 -29 62 -35 0
-40 -3 -46 -29 -8 -39 -44 -61 -98 -61 -34 0 -49 6 -70 28 -16 16 -27 39 -27
55 l0 26 138 3 137 3 -2 60 c-4 122 -57 175 -174 175 -39 -1 -78 -8 -99 -18z
m165 -77 c14 -13 25 -36 25 -50 l0 -25 -95 0 c-94 0 -95 0 -95 24 0 15 12 34
31 50 41 35 100 36 134 1z"/>
</g>
</svg>
